<svg width="46" height="35" viewBox="0 0 46 35" fill="none" xmlns="http://www.w3.org/2000/svg">
<path d="M14.5487 26.8846C11.919 26.8846 9.78735 28.5285 9.78735 30.5562C9.78735 32.584 11.9191 34.2278 14.5487 34.2278C17.1785 34.2278 19.3101 32.584 19.3101 30.5562C19.3102 28.5285 17.1785 26.8846 14.5487 26.8846ZM14.5487 32.5961C13.0878 32.5961 11.9036 31.6828 11.9036 30.5563C11.9036 29.4297 13.0878 28.5165 14.5487 28.5165C16.0097 28.5165 17.1939 29.4297 17.1939 30.5563C17.194 31.6828 16.0097 32.5961 14.5487 32.5961Z" fill="white"/>
<path d="M34.6525 26.8846C32.0228 26.8846 29.8911 28.5285 29.8911 30.5562C29.8911 32.584 32.0229 34.2278 34.6525 34.2278C37.2821 34.2278 39.4139 32.584 39.4139 30.5562C39.4139 28.5285 37.2822 26.8846 34.6525 26.8846ZM34.6525 32.5961C33.1916 32.5961 32.0073 31.6828 32.0073 30.5563C32.0073 29.4297 33.1916 28.5165 34.6525 28.5165C36.1134 28.5165 37.2977 29.4297 37.2977 30.5563C37.2978 31.6828 36.1134 32.5961 34.6525 32.5961Z" fill="white"/>
<path d="M45.3923 5.46674C45.172 5.28113 44.8705 5.16494 44.5459 5.14034L10.1049 4.77318L9.15257 2.52937C8.4817 1.02941 6.66018 0.0167885 4.60272 0H1.0581C0.473709 0 0 0.365287 0 0.815923C0 1.26656 0.473709 1.63185 1.0581 1.63185H4.60272C5.75317 1.65145 6.7662 2.22108 7.14219 3.05973L13.8611 18.6846L13.3321 19.6229C12.7421 20.7962 12.9193 22.1168 13.8083 23.1722C14.6887 24.2087 16.17 24.8484 17.7761 24.8856H38.3562C38.9406 24.8856 39.4143 24.5203 39.4143 24.0697C39.4143 23.6191 38.9406 23.2538 38.3562 23.2538H17.776C16.869 23.2363 16.0341 22.8683 15.554 22.2746C15.0793 21.6882 14.9818 20.9658 15.2895 20.3164L15.7128 19.5821L37.9857 17.787C40.4323 17.5792 42.4448 16.2071 43.0117 14.3601L45.5512 6.16014C45.6657 5.92401 45.6049 5.65844 45.3923 5.46674ZM40.9484 13.9931C40.6049 15.182 39.2959 16.059 37.7213 16.1553L15.7128 17.9095L10.7926 6.40502L43.2233 6.77218L40.9484 13.9931Z" fill="white"/>
</svg>
