<svg width="60" height="72" viewBox="0 0 60 72" fill="none" xmlns="http://www.w3.org/2000/svg">
<path d="M56.4104 59.6946C58.4436 58.5311 59.8128 56.5256 59.9835 54.4609C60.1879 51.9893 58.5891 49.6327 56.3437 49.0958C54.8322 48.7343 53.2924 49.1566 51.891 50.3168C50.8 51.22 49.8454 52.5335 49.2031 54.0151C48.5169 55.5975 48.0848 57.1986 47.9098 58.7628C44.9879 58.2974 42.1194 57.0551 39.6319 55.1507C36.409 52.6833 34.092 49.3088 33.1081 45.6487C32.9587 45.093 32.3874 44.7639 31.8313 44.9131C31.2756 45.0624 30.9462 45.6341 31.0957 46.1899C33.1434 53.8068 40.0771 59.7349 47.8306 60.8599C47.8824 62.2046 48.1365 63.5014 48.5951 64.7122C50.0172 68.4663 53.5593 71.1163 57.2089 71.1568H57.2206C57.7906 71.1568 58.2561 70.6978 58.2623 70.1264C58.2687 69.5509 57.8075 69.0792 57.2319 69.0728C54.4195 69.0416 51.6693 66.9448 50.5438 63.9739C50.1997 63.0655 49.9981 62.0777 49.9365 61.0445C50.127 61.0503 50.3205 61.0519 50.5098 61.0528C52.8893 61.0495 54.8193 60.6052 56.4104 59.6946ZM49.9964 58.9612C50.1499 57.602 50.5242 56.2065 51.1151 54.844C52.4258 51.8212 54.4928 50.7957 55.8591 51.1225C57.0865 51.4161 58.0243 52.8661 57.9067 54.2891C57.7916 55.6799 56.8217 57.0581 55.3753 57.8859C54.107 58.6118 52.5146 58.9659 50.5071 58.9687C50.3362 58.9691 50.1669 58.9665 49.9964 58.9612Z" fill="white"/>
<path d="M38.1991 29.7087C38.7573 29.5691 39.0967 29.0032 38.9571 28.445C38.8175 27.8868 38.2513 27.5472 37.6934 27.687L34.7188 28.4311L28.6136 21.0234L15.0055 4.51242L50.9854 24.0491C51.0142 24.0646 51.0903 24.106 51.0753 24.2245C51.0603 24.343 50.9761 24.364 50.9445 24.3719L42.3944 26.5109C41.8362 26.6506 41.4968 27.2164 41.6364 27.7747C41.776 28.3329 42.3421 28.6723 42.9001 28.5327L51.4502 26.3937C52.3603 26.166 53.0247 25.4175 53.1426 24.4867C53.2606 23.5559 52.8042 22.6653 51.9798 22.2177L11.2899 0.123551C11.246 0.0996545 11.1996 0.0790925 11.1526 0.061865C11.0998 0.0424144 11.0434 0.0271319 10.9881 0.0165731C10.9863 0.0162952 10.9845 0.0157395 10.9814 0.0153227C10.5895 -0.0473358 10.2213 0.0827048 9.97405 0.395719C9.88708 0.505753 9.82275 0.633293 9.78635 0.768752C9.78593 0.770419 6.84321 11.719 6.84321 11.719C6.69386 12.2747 7.02327 12.8464 7.57899 12.9958C8.13486 13.1452 8.70643 12.8157 8.85578 12.26L11.0348 4.15245L23.5709 32.3861L20.3642 33.1789L2.30152 37.6443C2.17328 37.6758 2.0563 37.5584 2.09103 37.4293C2.10159 37.3899 7.59261 16.9605 7.59261 16.9605C7.74196 16.4047 7.41255 15.833 6.85682 15.6837C6.30096 15.5349 5.72939 15.8637 5.58004 16.4195L0.0784618 36.8883C-0.131187 37.6684 0.0812406 38.4786 0.646556 39.0555C1.07947 39.4973 1.6534 39.7349 2.25053 39.7349C2.43308 39.7349 2.618 39.7127 2.80167 39.6673L17.5649 36.0175C18.2583 36.4411 28.2973 42.5748 28.2973 42.5748C28.5434 42.7253 28.8656 42.7666 29.1427 42.6825C29.423 42.5975 29.6677 42.3839 29.7891 42.1169C29.7904 42.1141 34.0732 32.692 35.0738 30.4905L38.1991 29.7087ZM20.4105 35.3141L24.4299 34.3205L26.5318 39.0543L20.4105 35.3141ZM28.8516 39.1432L14.8415 7.59018L33.1156 29.7627L28.8516 39.1432Z" fill="white"/>
<path d="M44.2408 34.0055C44.0737 33.4548 43.4915 33.144 42.9412 33.311C42.3905 33.4781 42.0796 34.06 42.2467 34.6105C42.9104 36.798 44.5512 38.6642 46.6357 39.6025C46.7746 39.665 46.9198 39.6946 47.0628 39.6946C47.4603 39.6946 47.8398 39.4659 48.0135 39.0801C48.2497 38.5554 48.0159 37.9385 47.4911 37.7023C45.9474 37.0074 44.7323 35.6254 44.2408 34.0055Z" fill="white"/>
<path d="M48.7966 31.4062C48.5229 30.9 47.8909 30.7113 47.3845 30.9851C46.8782 31.2587 46.6897 31.891 46.9634 32.3972C48.4071 35.0683 51.0374 37.0622 53.9993 37.7308C54.0766 37.7482 54.1537 37.7567 54.2297 37.7567C54.7059 37.7567 55.1358 37.428 55.2451 36.9439C55.3718 36.3826 55.0195 35.8248 54.4581 35.6981C52.0747 35.1599 49.9583 33.5556 48.7966 31.4062Z" fill="white"/>
<path d="M14.8036 41.5548C14.26 41.7437 13.9726 42.3377 14.1616 42.8812C14.7175 44.4802 14.5485 46.3125 13.7094 47.7827C13.4241 48.2826 13.5981 48.9189 14.0978 49.2041C14.2608 49.2971 14.4383 49.3414 14.6134 49.3414C14.9753 49.3414 15.3271 49.1526 15.5194 48.8157C16.6525 46.8303 16.8808 44.3559 16.1301 42.1967C15.941 41.6532 15.3468 41.3657 14.8036 41.5548Z" fill="white"/>
<path d="M9.84162 42.29C9.2713 42.3667 8.87104 42.8913 8.94773 43.4616C9.27338 45.8831 8.50648 48.4257 6.89612 50.2633C6.51683 50.6961 6.56032 51.3545 6.99309 51.7337C7.19079 51.9071 7.43559 51.9919 7.67942 51.9919C7.96909 51.9919 8.25751 51.8718 8.46355 51.6367C10.4647 49.3529 11.4178 46.1931 11.0132 43.1839C10.9365 42.6136 10.4125 42.2132 9.84162 42.29Z" fill="white"/>
</svg>
